<?xml version="1.0" encoding="UTF-8"?>
<svg width="28px" height="30px" viewBox="0 0 28 30" version="1.1" xmlns="http://www.w3.org/2000/svg" xmlns:xlink="http://www.w3.org/1999/xlink">
    <!-- Generator: Sketch 59.1 (86144) - https://sketch.com -->
    <title>Angle-double-down</title>
    <desc>Created with Sketch.</desc>
    <g id="Page-1" stroke="none" stroke-width="1" fill="none" fill-rule="evenodd">
        <g id="Stockholm-icons-48x48" transform="translate(-1304.000000, -10249.000000)">
            <g id="Navigation" transform="translate(120.000000, 9836.000000)">
                <g id="Stockholm-icons-/-Navigation-/-Angle-double-down" transform="translate(1174.000000, 404.000000)">
                    <polygon id="Shape" points="0 0 48 0 48 48 0 48"></polygon>
                    <path d="M16.585791,6.41420178 C15.8047424,5.6331532 15.8047424,4.36682324 16.585791,3.58577466 C17.3668396,2.80472607 18.6331696,2.80472607 19.4142181,3.58577466 L31.4142181,15.5857747 C32.171376,16.3429325 32.1978673,17.5621054 31.4743129,18.3514375 L20.4743129,30.3514375 C19.727928,31.1656755 18.4627933,31.2206813 17.6485553,30.4742965 C16.8343173,29.7279117 16.7793115,28.4627769 17.5256963,27.648539 L27.2317289,17.0601397 L16.585791,6.41420178 Z" id="Path-94" fill="#000000" fill-rule="nonzero" transform="translate(24.000006, 16.999994) scale(-1, -1) rotate(-90.000000) translate(-24.000006, -16.999994) "></path>
                    <path d="M13.4142136,38.414209 C12.633165,39.1952576 11.366835,39.1952576 10.5857864,38.414209 C9.80473785,37.6331604 9.80473785,36.3668304 10.5857864,35.5857819 L22.5857864,23.5857819 C23.3429443,22.828624 24.5621172,22.8021327 25.3514493,23.5256871 L37.3514493,34.5256871 C38.1656872,35.272072 38.2206931,36.5372067 37.4743083,37.3514447 C36.7279235,38.1656827 35.4627887,38.2206885 34.6485507,37.4743037 L24.0601515,27.7682711 L13.4142136,38.414209 Z" id="Path-94" fill="#000000" fill-rule="nonzero" opacity="0.3" transform="translate(24.000006, 30.999994) scale(-1, -1) rotate(-360.000000) translate(-24.000006, -30.999994) "></path>
                </g>
            </g>
        </g>
    </g>
</svg>