<?xml version="1.0" encoding="UTF-8"?>
<svg width="22px" height="21px" viewBox="0 0 22 21" version="1.1" xmlns="http://www.w3.org/2000/svg" xmlns:xlink="http://www.w3.org/1999/xlink">
    <!-- Generator: Sketch 58 (84663) - https://sketch.com -->
    <title>Call#1</title>
    <desc>Created with Sketch.</desc>
    <g id="Page-1" stroke="none" stroke-width="1" fill="none" fill-rule="evenodd">
        <g id="main" transform="translate(-413.000000, -608.000000)">
            <g id="Group-3" transform="translate(110.000000, 282.000000)">
                <g id="Group-5" transform="translate(0.000000, 303.000000)">
                    <g id="Group" transform="translate(298.000000, 12.000000)">
                        <g id="Stockholm-icons-/-Communication-/-Call#1" transform="translate(0.000000, 6.000000)">
                            <rect id="bound" x="0" y="0" width="32" height="32"></rect>
                            <path d="M15.886476,18.8569871 L18.825177,15.918286 C19.6368043,15.1066587 19.8380163,13.8667348 19.3246981,12.8400984 L19.158191,12.5070843 C18.6448728,11.4804479 18.8460848,10.240524 19.6577121,9.42889664 L23.3014509,5.78515785 C23.5618004,5.52480832 23.9839104,5.52480832 24.24426,5.78515785 C24.2949275,5.83582539 24.3370953,5.89433003 24.3691402,5.95841997 L25.8411078,8.90235518 C26.9671806,11.1545008 26.5257794,13.8745379 24.745302,15.6550153 L16.746868,23.6534493 C14.8088153,25.591502 11.9421201,26.2682369 9.34194961,25.4015134 L6.12264347,24.3284114 C5.77334792,24.2119795 5.5845746,23.8344329 5.70100645,23.4851373 C5.73373499,23.3869517 5.78887422,23.2977345 5.86205746,23.2245513 L9.39708655,19.6895222 C10.2087139,18.8778949 11.4486378,18.6766829 12.4752742,19.1900011 L12.8082883,19.3565082 C13.8349247,19.8698264 15.0748486,19.6686144 15.886476,18.8569871 L15.886476,18.8569871 Z" id="Path-76" fill="#E3DCD2" fill-rule="evenodd"></path>
                        </g>
                    </g>
                </g>
            </g>
        </g>
    </g>
</svg>