<?xml version="1.0" encoding="UTF-8"?>
<svg width="32px" height="31px" viewBox="0 0 32 31" version="1.1" xmlns="http://www.w3.org/2000/svg" xmlns:xlink="http://www.w3.org/1999/xlink">
    <!-- Generator: Sketch 58 (84663) - https://sketch.com -->
    <title>Call#1</title>
    <desc>Created with Sketch.</desc>
    <g id="Page-1" stroke="none" stroke-width="1" fill="none" fill-rule="evenodd">
        <g id="Stockholm-icons-48x48" transform="translate(-1302.000000, -4836.000000)">
            <g id="Communication" transform="translate(120.000000, 4640.000000)">
                <g id="Stockholm-icons-/-Communication-/-Call#1" transform="translate(1174.000000, 188.000000)">
                    <rect id="bound" x="0" y="0" width="48" height="48"></rect>
                    <path d="M23.8297139,28.2854806 L28.2377655,23.8774291 C29.4552065,22.659988 29.7570244,20.8001022 28.9870471,19.2601476 L28.7372865,18.7606265 C27.9673092,17.2206718 28.2691271,15.360786 29.4865682,14.143345 L34.9521764,8.67773677 C35.3427007,8.28721248 35.9758656,8.28721248 36.3663899,8.67773677 C36.4423913,8.75373809 36.5056429,8.84149505 36.5537104,8.93762996 L38.7616618,13.3535328 C40.450771,16.7317512 39.7886691,20.8118068 37.1179529,23.482523 L25.1203019,35.480174 C22.2132229,38.387253 17.9131802,39.4023554 14.0129244,38.1022701 L9.1839652,36.492617 C8.66002189,36.3179693 8.3768619,35.7516493 8.55150967,35.227706 C8.60060248,35.0804275 8.68331133,34.9466018 8.79308619,34.836827 L14.0956298,29.5342833 C15.3130709,28.3168423 17.1729567,28.0150244 18.7129113,28.7850017 L19.2124324,29.0347622 C20.7523871,29.8047395 22.6122729,29.5029216 23.8297139,28.2854806 L23.8297139,28.2854806 Z" id="Path-76" fill="#000000" fill-rule="evenodd"></path>
                </g>
            </g>
        </g>
    </g>
</svg>